<?xml version="1.0" encoding="UTF-8"?>
<svg width="1200pt" height="1200pt" version="1.1" viewBox="0 0 1200 1200" xmlns="http://www.w3.org/2000/svg">
 <path fill="white" d="m989.36 693.19c-37.344 0-71.242 15.059-95.902 39.48l-229.23-164.24v-21.277c0-24.18-15.637-44.305-37.129-51.996v-224.05c66.254-9.2148 117.23-66.109 117.23-134.83-0.011719-75.195-60.98-136.27-136.33-136.27-75.191 0-136.18 61.094-136.18 136.26 0 68.723 50.965 125.62 117.24 134.83v224.26c-21.121 7.9453-36.324 28.02-36.324 51.793v19.246l-241.87 166.38c-24.852-27.145-60.59-44.137-100.26-44.137-75.324 0-136.32 61.043-136.32 136.29 0 75.238 60.996 136.27 136.32 136.27 75.18 0 136.18-61.043 136.18-136.27 0-21.816-5.2305-42.527-14.316-60.793l220.23-151.46v531.59c0 30.73 25.066 55.754 55.766 55.754 30.77 0 55.754-25.02 55.754-55.754v-529.01l206.2 147.77c-10.922 19.586-17.242 42.289-17.242 66.348 0 75.395 61.043 136.29 136.21 136.29 75.277 0 136.32-60.887 136.32-136.29-0.011719-75.227-61.059-136.16-136.34-136.16z"/>
</svg>
